<svg width="26" height="23" viewBox="0 0 26 23" fill="none" xmlns="http://www.w3.org/2000/svg">
<path d="M3.00911 23C2.43041 23 1.93851 22.8081 1.53342 22.4242C1.12833 22.0403 0.925781 21.5742 0.925781 21.0258V18.525L6.48134 13.8526V23H3.00911ZM7.87023 23V17.7353H18.9813V23H7.87023ZM20.3702 23V12.2074L14.4327 7.20601L18.6341 3.68526L25.2313 9.24607C25.4628 9.44349 25.6364 9.66834 25.7522 9.9206C25.8679 10.1729 25.9258 10.4416 25.9258 10.7268V21.0258C25.9258 21.5742 25.7232 22.0403 25.3181 22.4242C24.9131 22.8081 24.4212 23 23.8424 23H20.3702ZM0.925781 16.7482V10.7268C0.925781 10.4416 0.983652 10.1674 1.09939 9.90415C1.21513 9.64091 1.38874 9.42155 1.62023 9.24607L12.0369 0.493562C12.2221 0.318073 12.4362 0.191941 12.6793 0.115165C12.9223 0.0383882 13.1712 0 13.4258 0C13.6804 0 13.9293 0.0383882 14.1723 0.115165C14.4154 0.191941 14.6295 0.318073 14.8147 0.493562L17.5924 2.82976L0.925781 16.7482Z" fill="#DF1E1E" fill-opacity="0.75"/>
</svg>
