<svg width="26" height="26" viewBox="0 0 26 26" fill="none" xmlns="http://www.w3.org/2000/svg">
<path d="M6.28292 19.8095C6.77896 19.8095 7.20058 19.629 7.54781 19.2679C7.89503 18.9067 8.06864 18.4683 8.06864 17.9524C8.06864 17.4365 7.89503 16.998 7.54781 16.6369C7.20058 16.2758 6.77896 16.0952 6.28292 16.0952C5.78689 16.0952 5.36527 16.2758 5.01804 16.6369C4.67082 16.998 4.49721 17.4365 4.49721 17.9524C4.49721 18.4683 4.67082 18.9067 5.01804 19.2679C5.36527 19.629 5.78689 19.8095 6.28292 19.8095ZM14.6163 19.8095C15.1123 19.8095 15.5339 19.629 15.8811 19.2679C16.2284 18.9067 16.402 18.4683 16.402 17.9524C16.402 17.4365 16.2284 16.998 15.8811 16.6369C15.5339 16.2758 15.1123 16.0952 14.6163 16.0952C14.1202 16.0952 13.6986 16.2758 13.3514 16.6369C13.0042 16.998 12.8305 17.4365 12.8305 17.9524C12.8305 18.4683 13.0042 18.9067 13.3514 19.2679C13.6986 19.629 14.1202 19.8095 14.6163 19.8095ZM3.30673 26C2.96943 26 2.68669 25.8813 2.45852 25.644C2.23034 25.4067 2.11626 25.1127 2.11626 24.7619V22.2238C1.75911 21.8111 1.47142 21.352 1.25316 20.8464C1.03491 20.3409 0.925781 19.7889 0.925781 19.1905V7.42857C0.925781 6.80952 1.03987 6.18532 1.26804 5.55595C1.49622 4.92659 2.00217 4.36429 2.7859 3.86905C3.56963 3.37381 4.72538 2.99722 6.25316 2.73929C7.78094 2.48135 9.83451 2.41429 12.4139 2.5381C12.2551 2.93016 12.1212 3.32738 12.0121 3.72976C11.903 4.13214 11.8186 4.53968 11.7591 4.95238C9.53689 4.89048 7.78094 4.97302 6.49126 5.2C5.20157 5.42698 4.31864 5.75714 3.84245 6.19048H11.6401C11.6401 6.60317 11.6698 7.01587 11.7294 7.42857C11.7889 7.84127 11.8782 8.25397 11.9972 8.66667H3.30673V12.381H14.1401C14.894 13.1651 15.772 13.7738 16.774 14.2071C17.776 14.6405 18.8424 14.8571 19.9734 14.8571V19.1905C19.9734 19.7889 19.8643 20.3409 19.646 20.8464C19.4278 21.352 19.1401 21.8111 18.7829 22.2238V24.7619C18.7829 25.1127 18.6688 25.4067 18.4407 25.644C18.2125 25.8813 17.9298 26 17.5924 26H16.402C16.0647 26 15.7819 25.8813 15.5538 25.644C15.3256 25.4067 15.2115 25.1127 15.2115 24.7619V23.5238H5.68769V24.7619C5.68769 25.1127 5.5736 25.4067 5.34542 25.644C5.11725 25.8813 4.83451 26 4.49721 26H3.30673ZM15.2115 14.8571H3.30673H17.5924H15.2115ZM19.9734 12.381C18.3266 12.381 16.9228 11.7774 15.7621 10.5702C14.6014 9.3631 14.021 7.90317 14.021 6.19048C14.021 4.47778 14.6014 3.01786 15.7621 1.81071C16.9228 0.603571 18.3266 0 19.9734 0C21.6202 0 23.024 0.603571 24.1847 1.81071C25.3454 3.01786 25.9258 4.47778 25.9258 6.19048C25.9258 7.90317 25.3454 9.3631 24.1847 10.5702C23.024 11.7774 21.6202 12.381 19.9734 12.381ZM19.3782 7.42857H20.5686V2.47619H19.3782V7.42857ZM19.9734 9.90476C20.1321 9.90476 20.271 9.84286 20.3901 9.71905C20.5091 9.59524 20.5686 9.45079 20.5686 9.28571C20.5686 9.12064 20.5091 8.97619 20.3901 8.85238C20.271 8.72857 20.1321 8.66667 19.9734 8.66667C19.8147 8.66667 19.6758 8.72857 19.5567 8.85238C19.4377 8.97619 19.3782 9.12064 19.3782 9.28571C19.3782 9.45079 19.4377 9.59524 19.5567 9.71905C19.6758 9.84286 19.8147 9.90476 19.9734 9.90476ZM5.68769 21.0476H15.2115C15.8663 21.0476 16.4268 20.8052 16.893 20.3202C17.3593 19.8353 17.5924 19.2524 17.5924 18.5714V14.8571H3.30673V18.5714C3.30673 19.2524 3.53987 19.8353 4.00614 20.3202C4.47241 20.8052 5.03292 21.0476 5.68769 21.0476Z" fill="#4D8802"/>
</svg>
