<svg width="25" height="20" viewBox="0 0 25 20" fill="none" xmlns="http://www.w3.org/2000/svg">
<path d="M12.9258 20L0.925781 5.88235C2.50911 3.98039 4.33828 2.52451 6.41328 1.51471C8.48828 0.504902 10.6591 0 12.9258 0C15.1924 0 17.3633 0.504902 19.4383 1.51471C21.5133 2.52451 23.3424 3.98039 24.9258 5.88235L12.9258 20ZM12.9258 16.6471L22.0258 5.94118C20.7091 4.76471 19.2758 3.87255 17.7258 3.26471C16.1758 2.65686 14.5758 2.35294 12.9258 2.35294C11.2758 2.35294 9.67578 2.65686 8.12578 3.26471C6.57578 3.87255 5.14245 4.76471 3.82578 5.94118L12.9258 16.6471ZM11.9258 12.9412V7.05882H13.9258V12.9412H11.9258ZM12.9258 5.88235C12.6424 5.88235 12.4049 5.76961 12.2133 5.54412C12.0216 5.31863 11.9258 5.03922 11.9258 4.70588C11.9258 4.37255 12.0216 4.09314 12.2133 3.86765C12.4049 3.64216 12.6424 3.52941 12.9258 3.52941C13.2091 3.52941 13.4466 3.64216 13.6383 3.86765C13.8299 4.09314 13.9258 4.37255 13.9258 4.70588C13.9258 5.03922 13.8299 5.31863 13.6383 5.54412C13.4466 5.76961 13.2091 5.88235 12.9258 5.88235Z" fill="#EBBA0B"/>
</svg>
